inDegrees=yes
name=ik_S48_A13_T02
DataType=double
version=3
OpenSimVersion=4.3-2021-08-27-4bc7ad9
endheader
time	pelvis_tilt	pelvis_list	pelvis_rotation	pelvis_tx	pelvis_ty	pelvis_tz	hip_flexion_r	hip_adduction_r	hip_rotation_r	knee_angle_r	knee_angle_r_beta	ankle_angle_r	subtalar_angle_r	mtp_angle_r	hip_flexion_l	hip_adduction_l	hip_rotation_l	knee_angle_l	knee_angle_l_beta	ankle_angle_l	subtalar_angle_l	mtp_angle_l	lumbar_extension	lumbar_bending	lumbar_rotation	arm_flex_r	arm_add_r	arm_rot_r	elbow_flex_r	pro_sup_r	wrist_flex_r	wrist_dev_r	arm_flex_l	arm_add_l	arm_rot_l	elbow_flex_l	pro_sup_l	wrist_flex_l	wrist_dev_l
11.69999999999984	-2.39862851000036	-2.999941751685523	40.15568642368913	0	0.9399999999999999	0	35.45740846593277	-9.77511833263927	-9.332815790667777	41.90185462300236	0.7313253258633984	0	0	0	35.45740846593277	-9.77511833263927	-9.332815790667777	41.90185462300236	0.7313253258633984	0	0	0	-2.59486949683888	-1.253577068102688	9.381554999616531	63.74320778609998	-13.39486861129545	-15.87177961775686	59.40430316697137	108.7726989168687	0	0	21.61893124258147	-43.50641264471897	-8.19437426569241	46.1133987566358	100.9718593092575	0	0
11.71999999999984	-2.412116648584417	-3.000198910331442	39.59634718119036	0	0.9399999999999999	0	35.46321497394366	-9.775589028560033	-9.333711497923156	41.90731930488882	0.7314207025548913	0	0	0	35.46321497394366	-9.775589028560033	-9.333711497923156	41.90731930488882	0.7314207025548913	0	0	0	-2.583257656108812	-1.279071004635152	9.941537502621321	62.61241648550467	-16.98445590444421	-18.35770301296322	60.54470950475079	106.840108821622	0	0	20.30833438412702	-43.92649966455566	-9.299279233427512	45.43763820894839	101.6261609680667	0	0
11.73999999999984	-2.389997361341463	-2.961735013490819	39.80061489012006	0	0.9399999999999999	0	35.4690382412968	-9.776057210551709	-9.334605170235367	41.91283572996696	0.7315169823354444	0	0	0	35.4690382412968	-9.776057210551709	-9.334605170235367	41.91283572996696	0.7315169823354444	0	0	0	-2.557131134031773	-1.231138992382742	9.569802326988029	62.5416819494298	-17.14156116049297	-18.55570647293661	63.00356728911352	107.1603223815682	0	0	18.78955554550431	-44.33297988034638	-11.12976646856529	45.47401675535406	102.2841432099652	0	0
11.75999999999984	-2.412729520858391	-2.906297677177923	39.58622703759647	0	0.9399999999999999	0	35.47956035227259	-9.776896778720152	-9.336213310894507	41.92283229566751	0.7316914553208109	0	0	0	35.47956035227259	-9.776896778720152	-9.336213310894507	41.92283229566751	0.7316914553208109	0	0	0	-2.552643752191212	-1.145576574603315	9.259429099377492	62.58966816838889	-17.22520464648283	-18.94992910461375	67.16140480248693	108.8002158894176	0	0	16.84599767530183	-44.77325613357639	-13.7407081885656	44.86895488674503	103.4514590281392	0	0
11.77999999999984	-2.428129879198158	-2.890430036820557	39.12933068848056	0	0.9399999999999999	0	35.48397581251324	-9.777250630485801	-9.336889942924879	41.9270142936875	0.7317644449555717	0	0	0	35.48397581251324	-9.777250630485801	-9.336889942924879	41.9270142936875	0.7317644449555717	0	0	0	-2.539808881504554	-1.150082688661436	9.582378285642921	61.92999956257246	-19.10059518616958	-20.40726734379313	67.6788563084926	107.5449000062927	0	0	15.43476345652278	-45.23485696711512	-15.53365758994721	44.12893010285885	104.8620201781218	0	0
11.79999999999984	-2.460872780447362	-2.846061031058763	38.02612073073152	0	0.9399999999999999	0	35.58372563036652	-9.78285156138414	-9.349150250551419	42.04905114249871	0.7338943897760858	0	0	0	35.58372563036652	-9.78285156138414	-9.349150250551419	42.04905114249871	0.7338943897760858	0	0	0	-2.541802449436175	-1.139370459052197	10.28064713784223	59.9592229026898	-25.88993576940927	-25.84189193476552	71.19452475036141	104.3724190063846	0	0	14.91291714165929	-45.34437142663744	-16.40762590980226	42.66771640605281	106.543009390446	0	0
11.81999999999984	-2.491210164205778	-2.825259566142025	37.48799033547332	0	0.9399999999999999	0	35.58911132612928	-9.783278406478484	-9.349971207753972	42.05413387598526	0.7339831002104276	0	0	0	35.58911132612928	-9.783278406478484	-9.349971207753972	42.05413387598526	0.7339831002104276	0	0	0	-2.544797333267593	-1.119848567014468	10.51786274481922	59.4659338535165	-27.84259739943266	-27.23181742596891	71.54615239419887	102.7844716249843	0	0	13.57396640046799	-45.7479871966461	-17.94540703173017	41.71181325463397	107.9230840934149	0	0
11.83999999999984	-2.51654470856486	-2.792152620123454	36.91518774744482	0	0.9399999999999999	0	35.65853334404945	-9.787113725891166	-9.358433011762186	42.13896427767907	0.7354636700257738	0	0	0	35.65853334404945	-9.787113725891166	-9.358433011762186	42.13896427767907	0.7354636700257738	0	0	0	-2.54679110121244	-1.089309899912733	10.70952063358427	58.96973676958515	-30.10526259067773	-29.40888104326387	75.23631198696785	103.4415244426662	0	0	12.07935223149512	-46.08808371538149	-18.86395288353888	40.92714955371785	108.3576651944542	0	0
11.85999999999984	-2.544117176785556	-2.723089909833304	36.31590587661051	0	0.9399999999999999	0	35.71591127594732	-9.790283116600484	-9.365427243431975	42.20883325467057	0.7366831137192756	0	0	0	35.71591127594732	-9.790283116600484	-9.365427243431975	42.20883325467057	0.7366831137192756	0	0	0	-2.53952820407289	-1.008506802966368	10.57424991335072	58.92972389937244	-31.6274926219225	-30.13774102900481	75.2388485635262	101.7591928768597	0	0	10.10006272122314	-46.37858110684257	-20.0138896522313	39.89903639084163	108.1544875064027	0	0
11.87999999999984	-2.536921916515818	-2.655748624994533	35.77918666628001	0	0.9399999999999999	0	35.78251486495549	-9.793868802828975	-9.373431333715379	42.29058271516191	0.7381099109665786	0	0	0	35.78251486495549	-9.793868802828975	-9.373431333715379	42.29058271516191	0.7381099109665786	0	0	0	-2.498014268315658	-0.9666167057553352	10.71790705715316	58.83059422308401	-33.80982815715972	-32.26771758908787	78.27683456827985	101.871449963825	0	0	8.554020266256662	-46.68277556593529	-20.97354884178744	38.65923228370672	107.921286002241	0	0
11.89999999999984	-2.518911205331096	-2.626469491189992	35.25444145935088	0	0.9399999999999999	0	35.8527968344581	-9.797665403514516	-9.38189838946329	42.37622011191705	0.7396045655027925	0	0	0	35.8527968344581	-9.797665403514516	-9.38189838946329	42.37622011191705	0.7396045655027925	0	0	0	-2.462773448378344	-0.9708307653689551	11.09572440561078	58.91973478642091	-37.47151651034147	-35.73366277106157	79.31900999852211	100.1639680295746	0	0	7.480345141545315	-47.05391860541472	-21.99688771607676	37.3138771422694	107.8218438299484	0	0
11.91999999999983	-2.474583968882316	-2.5893051615606	34.79109621893086	0	0.9399999999999999	0	35.92248872416742	-9.801398813253691	-9.390257321186445	42.46109059132457	0.7410858348061997	0	0	0	35.92248872416742	-9.801398813253691	-9.390257321186445	42.46109059132457	0.7410858348061997	0	0	0	-2.406917936220135	-0.9769992116943503	11.26316272449008	59.17229387619197	-39.28157605354778	-38.1268706724189	83.30658411385222	100.9638711680268	0	0	6.325717208082315	-47.39971861575163	-22.85653605564119	36.79923488779146	107.4591717342252	0	0
11.93999999999983	-2.499193204943003	-2.615568841236828	34.35941590869466	0	0.9399999999999999	0	35.99381129403551	-9.805105863300284	-9.39866945725338	42.54876820914171	0.7426160979174141	0	0	0	35.99381129403551	-9.805105863300284	-9.39866945725338	42.54876820914171	0.7426160979174141	0	0	0	-2.441553292946362	-0.9971349529567003	11.40962732407572	59.88892686257766	-40.6449958520177	-39.7481946193993	85.44896677105869	101.2409415811038	0	0	4.667194065366367	-47.39113438356264	-22.84741933143665	35.91009183396127	105.8898057379422	0	0
11.95999999999983	-2.466434790672904	-2.638199459990448	34.03041173037622	0	0.9399999999999999	0	36.0020634434788	-9.805716698659824	-9.399881377214051	42.55662650876283	0.7427532511194107	0	0	0	36.0020634434788	-9.805716698659824	-9.399881377214051	42.55662650876283	0.7427532511194107	0	0	0	-2.427300176633984	-1.039794819732954	11.4598156907625	59.8385666112248	-40.47667729068672	-40.27947099567307	88.65317089857861	102.6297973012769	0	0	3.536051501896516	-47.35385660916204	-23.73251901279254	34.59498206508542	105.3392813832755	0	0
11.97999999999983	-2.447654705165295	-2.587567979243581	33.55380881646438	0	0.9399999999999999	0	36.00610271966636	-9.80601564446718	-9.400474713833511	42.56046769637955	0.7428202924905094	0	0	0	36.00610271966636	-9.80601564446718	-9.400474713833511	42.56046769637955	0.7428202924905094	0	0	0	-2.379547516783397	-1.022435352448331	11.57008374748354	60.66469989745995	-41.6153315834783	-41.55524592078379	90.76973904567907	103.3656519742047	0	0	2.234994597829788	-47.20296752618882	-25.28119553112375	31.63816939675824	103.8348261138228	0	0
11.99999999999983	-2.416466450314822	-2.577276909581119	33.30267606131881	0	0.9399999999999999	0	36.00980206401572	-9.8062895225621	-9.401018326651844	42.56398164166047	0.7428816224053963	0	0	0	36.00980206401572	-9.8062895225621	-9.401018326651844	42.56398164166047	0.7428816224053963	0	0	0	-2.343041094469858	-1.040990550827539	11.68900059886522	61.4119833990984	-42.7434710524653	-42.46883598483043	89.76922342347555	102.611075681061	0	0	1.279016246382811	-46.93539329543326	-26.24789526195255	31.37179830412617	103.5314053722252	0	0
12.01999999999983	-2.433860661239952	-2.570432070173096	32.64785696805381	0	0.9399999999999999	0	36.0178931658586	-9.806890746371215	-9.402210498835876	42.57163050880043	0.7430151203210363	0	0	0	36.0178931658586	-9.806890746371215	-9.402210498835876	42.57163050880043	0.7430151203210363	0	0	0	-2.34136144610978	-1.04659698911652	11.96022837091204	62.58498758856741	-43.57007326119522	-44.2058987885577	95.56263759924747	105.6905260042694	0	0	0.8261186663480581	-46.89040347464877	-26.8512518266631	29.96454247337108	102.486652212221	0	0
12.03999999999983	-2.43188509045441	-2.570087227042282	32.50790191670988	0	0.9399999999999999	0	36.02190372162303	-9.80718676748319	-9.402798982230282	42.57544115971171	0.7430816287260823	0	0	0	36.02190372162303	-9.80718676748319	-9.402798982230282	42.57544115971171	0.7430816287260823	0	0	0	-2.334577748464085	-1.057717064817858	12.09366633086923	63.52723157678845	-44.58345167148153	-45.29952477958674	94.52194305765151	105.11335653685	0	0	0.2492918932352444	-46.31106679556939	-27.39583006707671	29.1085115705273	101.87046794812	0	0
